<svg xmlns="http://www.w3.org/2000/svg" width="24" height="24" enable-background="new 0 0 32 32" viewBox="0 0 32 32"><path d="M 15.998047 0 A 3 3 0 0 0 12.998047 3 A 3 3 0 0 0 15.998047 6 A 3 3 0 0 0 18.998047 3 A 3 3 0 0 0 15.998047 0 z M 12.998047 7 C 12.990647 7 12.983883 7.0037262 12.976562 7.0039062 C 12.585328 6.9981662 12.192627 7.1408691 11.894531 7.4394531 L 7.4179688 11.916016 C 6.8320312 12.501953 6.8320311 13.45166 7.4179688 14.037109 L 11.943359 18.560547 C 11.959659 18.576847 12 18.582276 12 18.597656 L 12 20.365234 L 11.078125 25.425781 L 8.25 29.667969 C 7.7905273 30.357422 7.9765625 31.288574 8.6660156 31.748047 C 8.921875 31.918457 9.2104491 32 9.4960938 32 C 9.980957 32 10.457032 31.765625 10.746094 31.332031 L 13.746094 26.832031 C 13.859864 26.661621 13.936035 26.468749 13.972656 26.267578 L 14.566406 23 L 17.427734 23 L 17.966797 25.970703 L 17.033203 30.173828 C 16.853516 30.982421 17.362793 31.785156 18.171875 31.964844 C 18.28125 31.989254 18.390137 32 18.498047 32 C 19.185547 32 19.805665 31.523438 19.960938 30.824219 L 20.960938 26.324219 C 21.004397 26.129395 21.010749 25.927246 20.974609 25.730469 L 20 20.365234 L 20 18.599609 C 20 18.582819 20.040714 18.578427 20.058594 18.560547 L 24.582031 14.037109 C 25.167969 13.45166 25.167969 12.501954 24.582031 11.916016 L 20.105469 7.4394531 C 19.806214 7.1401977 19.413452 6.9974976 19.021484 7.0039062 C 19.013305 7.0037231 19.006286 7 18.998047 7 L 12.998047 7 z M 20 11.574219 L 21.402344 12.976562 L 20 14.378906 L 20 11.574219 z M 12 11.580078 L 12 14.373047 L 10.603516 12.976562 L 12 11.580078 z " fill="#b566ff" class="color000 svgShape"></path></svg>